<svg width="151" height="91" viewBox="0 0 151 91" fill="none" xmlns="http://www.w3.org/2000/svg">
<path d="M133.852 63.0679L121.321 51.6647H101.187V63.0679H95.5253V47.1753H120.64C127.195 47.1753 133.119 45.3177 133.119 40.3647C133.119 34.8949 127.928 33.2952 120.64 33.2952H95.4204L99.1432 28.5478H122.738C130.917 28.5478 138.939 31.6439 138.939 40.0542C138.939 46.2465 134.325 50.0135 127.195 50.6318L141.561 63.0671H133.853L133.852 63.0679Z" fill="#BB2649"/>
<path d="M145.337 63.0679V28.5478H151V63.0679H145.337Z" fill="#BB2649"/>
<path d="M88.3161 53.9782C95.2852 42.0989 83.6021 22.6205 62.2211 10.4721C40.8401 -1.6764 17.8578 -1.89455 10.8887 9.9848C3.91961 21.8641 15.6027 41.3425 36.9837 53.491C58.3647 65.6394 81.3469 65.8576 88.3161 53.9782Z" stroke="#BB2649" stroke-width="0.666667" stroke-miterlimit="10"/>
<path d="M89.1342 52.3968C94.8034 39.8657 81.1154 21.6958 58.5613 11.8134C36.0071 1.93094 13.1275 4.07817 7.45834 16.6094C1.78915 29.1405 15.4771 47.3104 38.0313 57.1928C60.5855 67.0753 83.465 64.928 89.1342 52.3968Z" stroke="#BB2649" stroke-width="0.666667" stroke-miterlimit="10"/>
<path d="M89.781 50.7397C94.0882 37.6939 78.5453 21.0317 55.065 13.5236C31.5847 6.01541 9.05858 10.5045 4.75143 23.5502C0.444274 36.596 15.9872 53.2582 39.4674 60.7663C62.9477 68.2745 85.4739 63.7854 89.781 50.7397Z" stroke="#BB2649" stroke-width="0.666667" stroke-miterlimit="10"/>
<path d="M90.2477 49.0257C93.1456 35.6084 75.9181 20.6363 51.769 15.5847C27.6199 10.5331 5.6939 17.3149 2.79598 30.7322C-0.101942 44.1495 17.1256 59.1216 41.2747 64.1732C65.4238 69.2248 87.3498 62.443 90.2477 49.0257Z" stroke="#BB2649" stroke-width="0.666667" stroke-miterlimit="10"/>
<path d="M90.5297 47.2721C91.9867 33.6302 73.2633 20.5123 48.7099 17.9726C24.1566 15.4329 3.07104 24.433 1.6141 38.075C0.157159 51.7169 18.8805 64.8348 43.4339 67.3745C67.9873 69.9142 89.0728 60.9141 90.5297 47.2721Z" stroke="#BB2649" stroke-width="0.666667" stroke-miterlimit="10"/>
<path d="M45.921 70.337C70.6096 70.337 90.6237 59.2171 90.6237 45.5C90.6237 31.7829 70.6096 20.663 45.921 20.663C21.2323 20.663 1.21826 31.7829 1.21826 45.5C1.21826 59.2171 21.2323 70.337 45.921 70.337Z" stroke="#BB2649" stroke-width="0.666667" stroke-miterlimit="10"/>
<path d="M48.7099 73.0274C73.2633 70.4876 91.9867 57.3698 90.5297 43.7279C89.0728 30.0859 67.9873 21.0858 43.4339 23.6255C18.8805 26.1652 0.157159 39.283 1.6141 52.925C3.07104 66.5669 24.1566 75.5671 48.7099 73.0274Z" stroke="#BB2649" stroke-width="0.666667" stroke-miterlimit="10"/>
<path d="M51.7685 75.4166C75.9176 70.365 93.1451 55.393 90.2472 41.9756C87.3493 28.5583 65.4233 21.7765 41.2742 26.8281C17.1251 31.8797 -0.10243 46.8518 2.79549 60.2691C5.69342 73.6865 27.6194 80.4682 51.7685 75.4166Z" stroke="#BB2649" stroke-width="0.666667" stroke-miterlimit="10"/>
<path d="M55.065 77.4768C78.5453 69.9686 94.0882 53.3064 89.781 40.2607C85.4739 27.2149 62.9477 22.7258 39.4674 30.234C15.9872 37.7421 0.444274 54.4044 4.75143 67.4501C9.05858 80.4958 31.5847 84.9849 55.065 77.4768Z" stroke="#BB2649" stroke-width="0.666667" stroke-miterlimit="10"/>
<path d="M58.5613 79.188C81.1154 69.3055 94.8034 51.1357 89.1342 38.6045C83.465 26.0733 60.5855 23.9261 38.0313 33.8085C15.4771 43.691 1.78915 61.8608 7.45834 74.392C13.1275 86.9232 36.0071 89.0704 58.5613 79.188Z" stroke="#BB2649" stroke-width="0.666667" stroke-miterlimit="10"/>
<path d="M62.2206 80.5295C83.6016 68.3811 95.2847 48.9027 88.3156 37.0233C81.3465 25.144 58.3642 25.3621 36.9832 37.5106C15.6022 49.659 3.91912 69.1374 10.8882 81.0168C17.8574 92.8961 40.8396 92.678 62.2206 80.5295Z" stroke="#BB2649" stroke-width="0.666667" stroke-miterlimit="10"/>
</svg>
