<svg width="46" height="47" viewBox="0 0 46 47" fill="none" xmlns="http://www.w3.org/2000/svg">
<path d="M30.8397 5.64004C25.5458 2.58607 20.0744 1.04512 15.5228 1.00119C10.9534 0.957149 7.42711 2.41432 5.81188 5.20976C4.1969 8.00517 4.69747 11.7846 7.02023 15.7165C9.33412 19.6332 13.4053 23.5973 18.6992 26.6514C23.9932 29.7055 29.4652 31.2468 34.0169 31.2907C38.586 31.3347 42.1113 29.8776 43.7266 27.0825C45.3418 24.2871 44.8423 20.5074 42.5195 16.5754C40.2056 12.6585 36.1337 8.69415 30.8397 5.64004ZM31.34 4.77419C36.7551 7.8981 40.9642 11.9759 43.3808 16.0666C45.7885 20.1422 46.4682 24.3364 44.5928 27.5822C42.7172 30.8277 38.7426 32.336 34.0066 32.2904C29.2528 32.2446 23.614 30.6411 18.1989 27.5172C12.7839 24.3933 8.57467 20.3155 6.15809 16.2247C3.75066 12.1494 3.07057 7.95568 4.94568 4.71006C6.82107 1.46437 10.7962 -0.0445897 15.5323 0.00100227C20.286 0.0468193 25.925 1.65032 31.34 4.77419Z" fill="#BB2649"/>
<path d="M27.3508 7.23436C21.5369 5.34681 15.8637 4.97632 11.4023 5.87902C6.9239 6.78528 3.77853 8.94279 2.78028 12.0124C1.78205 15.0822 3.05716 18.6757 6.14737 22.0392C9.22572 25.3898 14.0337 28.4212 19.8475 30.3087C25.6614 32.1963 31.3343 32.5677 35.7958 31.665C40.2744 30.7588 43.4199 28.6004 44.4181 25.5307C45.4162 22.461 44.1407 18.8682 41.0507 15.5047C37.9724 12.1541 33.1647 9.12192 27.3508 7.23436ZM27.66 6.28337C33.6068 8.21406 38.5723 11.3287 41.7873 14.828C44.9902 18.3142 46.5282 22.275 45.3692 25.8394C44.2102 29.4039 40.6358 31.7048 35.9939 32.6441C31.3345 33.5869 25.4851 33.1904 19.5383 31.2597C13.5916 29.329 8.62606 26.2143 5.41109 22.715C2.20825 19.2288 0.670088 15.268 1.82915 11.7036C2.98828 8.13926 6.56255 5.83823 11.2044 4.89894C15.8639 3.95617 21.7133 4.35269 27.66 6.28337Z" fill="#BB2649"/>
<path d="M24.2706 9.51902C18.1911 8.8805 12.5648 9.69602 8.38873 11.5058C4.19641 13.3226 1.56839 16.0868 1.23072 19.2969C0.893058 22.5069 2.8885 25.7566 6.61117 28.4047C10.3194 31.0425 15.653 33.0091 21.7326 33.6476C27.8119 34.2859 33.4375 33.4703 37.6135 31.6606C41.8058 29.8438 44.4338 27.0796 44.7715 23.8696C45.1091 20.6595 43.1137 17.4098 39.391 14.7617C35.6829 12.124 30.3499 10.1575 24.2706 9.51902ZM24.3752 8.52446C30.5933 9.17752 36.098 11.192 39.9707 13.9467C43.8291 16.6913 46.1581 20.2465 45.766 23.974C45.3739 27.7015 42.3561 30.6951 38.0109 32.5783C33.6496 34.4682 27.8461 35.295 21.6279 34.6421C15.4096 33.989 9.90434 31.9745 6.03152 29.2197C2.17309 26.4751 -0.155895 22.9199 0.236188 19.1924C0.628278 15.4649 3.64612 12.4713 7.99133 10.5882C12.3527 8.69814 18.1568 7.8714 24.3752 8.52446Z" fill="#BB2649"/>
<path d="M44.7715 22.1717C44.4338 18.9616 41.8058 16.1974 37.6135 14.3806C33.4375 12.5709 27.8119 11.7553 21.7326 12.3937C15.653 13.0321 10.3194 14.9987 6.61117 17.6365C2.8885 20.2846 0.893058 23.5343 1.23072 26.7444C1.56839 29.9544 4.19641 32.7186 8.38873 34.5354C12.5648 36.3452 18.1911 37.1607 24.2706 36.5223C30.3499 35.8837 35.6829 33.9172 39.391 31.2795C43.1137 28.6314 45.1091 25.3817 44.7715 22.1717ZM45.766 22.0672C46.1581 25.7947 43.8291 29.3499 39.9707 32.0945C36.098 34.8493 30.5933 36.8637 24.3752 37.5168C18.1568 38.1698 12.3527 37.3431 7.99133 35.4531C3.64612 33.5699 0.628278 30.5763 0.236188 26.8488C-0.155895 23.1213 2.17309 19.5661 6.03152 16.8215C9.90434 14.0667 15.4096 12.0522 21.6279 11.3991C27.8461 10.7462 33.6496 11.573 38.0109 13.463C42.3561 15.3461 45.3739 18.3397 45.766 22.0672Z" fill="#BB2649"/>
<path d="M44.4181 20.5107C43.4199 17.4409 40.2744 15.2826 35.7958 14.3764C31.3343 13.4737 25.6614 13.8451 19.8475 15.7326C14.0337 17.6202 9.22572 20.6515 6.14737 24.0021C3.05716 27.3657 1.78205 30.9592 2.78028 34.029C3.77853 37.0986 6.9239 39.2561 11.4023 40.1624C15.8637 41.0651 21.5369 40.6946 27.3508 38.807C33.1647 36.9195 37.9724 33.8872 41.0507 30.5366C44.1407 27.1732 45.4162 23.5804 44.4181 20.5107ZM45.3692 20.2019C46.5282 23.7663 44.9902 27.7271 41.7873 31.2133C38.5723 34.7126 33.6068 37.8273 27.66 39.758C21.7133 41.6887 15.8639 42.0852 11.2044 41.1424C6.56255 40.2031 2.98828 37.9021 1.82915 34.3378C0.670088 30.7733 2.20825 26.8126 5.41109 23.3263C8.62606 19.827 13.5916 16.7123 19.5383 14.7817C25.4851 12.851 31.3345 12.4545 35.9939 13.3972C40.6358 14.3365 44.2102 16.6375 45.3692 20.2019Z" fill="#BB2649"/>
<path d="M43.7266 18.9595C42.1113 16.1644 38.586 14.7073 34.0169 14.7513C29.4652 14.7952 23.9932 16.3365 18.6992 19.3906C13.4053 22.4447 9.33412 26.4088 7.02023 30.3255C4.69747 34.2574 4.1969 38.0369 5.81188 40.8323C7.42711 43.6277 10.9534 45.0849 15.5228 45.0408C20.0744 44.9969 25.5458 43.4559 30.8397 40.402C36.1337 37.3479 40.2056 33.3835 42.5195 29.4666C44.8423 25.5346 45.3418 21.7549 43.7266 18.9595ZM44.5928 18.4598C46.4682 21.7056 45.7885 25.8998 43.3808 29.9754C40.9642 34.0661 36.7551 38.1439 31.34 41.2678C25.925 44.3917 20.286 45.9952 15.5323 46.041C10.7962 46.0866 6.82107 44.5776 4.94568 41.332C3.07056 38.0863 3.75066 33.8926 6.15809 29.8172C8.57467 25.7265 12.7839 21.6487 18.1989 18.5248C23.614 15.4009 29.2528 13.7974 34.0066 13.7516C38.7426 13.706 42.7173 15.2143 44.5928 18.4598Z" fill="#BB2649"/>
</svg>
